<?xml version="1.0" standalone="no"?>
<!DOCTYPE svg PUBLIC "-//W3C//DTD SVG 20010904//EN"
 "http://www.w3.org/TR/2001/REC-SVG-20010904/DTD/svg10.dtd">
<svg version="1.0" xmlns="http://www.w3.org/2000/svg"
 width="655.000000pt" height="655.000000pt" viewBox="0 0 655.000000 655.000000"
 preserveAspectRatio="xMidYMid meet">
<metadata>
Created by potrace 1.14, written by Peter Selinger 2001-2017
</metadata>
<g transform="translate(0.000000,655.000000) scale(0.100000,-0.100000)"
fill="#000000" stroke="none">
<path d="M0 3275 l0 -3275 3275 0 3275 0 0 3275 0 3275 -3275 0 -3275 0 0
-3275z m966 1704 l44 -11 0 -54 c0 -30 -2 -54 -3 -54 -2 0 -18 7 -36 16 -17 8
-59 19 -93 24 -87 13 -153 -3 -197 -47 -31 -31 -33 -37 -28 -79 6 -61 39 -93
156 -153 180 -93 232 -150 232 -255 0 -101 -56 -172 -158 -202 -67 -20 -223
-15 -288 8 -40 15 -40 16 -43 71 l-3 56 54 -24 c132 -61 272 -53 321 17 9 12
16 41 16 64 0 68 -30 99 -170 176 -140 77 -174 105 -201 163 -56 121 17 247
166 285 46 12 181 11 231 -1z m3027 -328 c115 -181 214 -336 220 -345 9 -13
11 60 9 329 l-3 345 51 0 50 0 0 -410 0 -411 -62 3 -61 3 -175 270 c-96 149
-197 306 -223 349 l-49 79 0 -351 0 -352 -45 0 -45 0 0 410 0 410 63 0 62 -1
208 -328z m-548 99 l75 0 0 -45 0 -45 -76 0 -75 0 3 -194 c3 -174 5 -196 22
-215 22 -24 94 -29 114 -9 9 9 12 2 12 -34 0 -39 -3 -47 -22 -52 -43 -11 -113
-6 -148 12 -63 31 -70 60 -70 290 l0 202 -50 0 -50 0 0 45 0 45 50 0 50 0 0
69 0 69 43 15 42 14 3 -84 3 -83 74 0z m1890 0 l75 0 0 -45 0 -45 -76 0 -75 0
3 -194 c3 -174 5 -196 22 -215 22 -24 94 -29 114 -9 9 9 12 2 12 -34 0 -39 -3
-47 -22 -52 -43 -11 -113 -6 -148 12 -63 31 -70 60 -70 290 l0 202 -50 0 -50
0 0 45 0 45 50 0 50 0 0 69 0 69 43 15 42 14 3 -84 3 -83 74 0z m-3803 -2 c26
-8 53 -27 75 -54 l35 -41 42 42 c50 50 119 71 194 60 36 -5 56 -16 88 -48 56
-56 64 -101 64 -347 l0 -200 -50 0 -50 0 0 213 c0 250 -6 272 -78 297 -62 21
-116 1 -157 -60 l-30 -45 -3 -202 -3 -203 -45 0 -44 0 0 174 c0 254 -16 314
-92 337 -53 17 -101 4 -137 -36 -44 -50 -51 -90 -51 -292 l0 -183 -45 0 -45 0
0 295 0 295 45 0 45 0 0 -47 1 -48 22 25 c31 36 52 50 94 66 48 17 75 17 125
2z m960 2 c21 -6 52 -23 69 -37 58 -49 63 -74 67 -325 l4 -228 -51 0 -51 0 0
42 0 42 -32 -34 c-44 -44 -85 -60 -155 -60 -110 0 -176 63 -175 166 1 120 66
172 249 199 57 8 105 15 108 15 3 0 5 15 5 33 0 42 -33 95 -68 108 -44 17
-127 4 -188 -30 l-54 -31 0 49 c0 49 0 49 44 66 91 35 163 43 228 25z m618
-51 l0 -48 -30 11 c-70 24 -146 -26 -169 -109 -6 -21 -11 -118 -11 -215 l0
-178 -50 0 -50 0 2 293 3 292 48 3 47 3 0 -58 0 -58 19 30 c41 67 97 96 163
87 26 -4 28 -8 28 -53z m1758 32 c77 -39 122 -129 122 -243 l0 -58 -205 0
c-229 0 -216 5 -195 -72 14 -48 55 -97 97 -114 65 -28 174 -14 236 28 l27 19
0 -45 c0 -44 -2 -47 -42 -68 -52 -26 -181 -36 -246 -19 -51 14 -116 69 -142
122 -48 93 -44 247 8 343 31 57 99 111 157 125 57 14 136 6 183 -18z m942 18
l50 -11 0 -47 0 -48 -52 18 c-116 40 -208 11 -208 -66 0 -43 32 -71 127 -109
122 -49 174 -111 159 -189 -18 -96 -99 -147 -231 -146 -44 0 -96 6 -115 13
-33 12 -35 15 -38 64 l-3 52 43 -22 c31 -16 65 -24 118 -26 65 -3 79 -1 103
18 20 16 27 30 27 55 0 44 -35 77 -112 106 -87 32 -147 74 -164 114 -61 147
96 267 296 224z m-4641 -1194 c175 -42 324 -184 360 -344 5 -24 11 -44 13 -46
1 -1 733 -5 1625 -8 1491 -4 1623 -3 1627 12 2 9 8 32 11 51 12 60 61 144 117
201 195 197 522 197 718 -2 233 -236 137 -608 -187 -729 -70 -26 -189 -36
-268 -21 -188 34 -348 185 -384 362 l-12 56 -877 6 c-482 4 -1213 7 -1623 7
l-745 0 -11 -59 c-33 -175 -179 -322 -364 -366 -278 -65 -555 107 -601 374
-54 314 267 584 601 506z m2451 -1590 l0 -435 -45 0 -45 0 0 435 0 435 45 0
45 0 0 -435z m-1095 180 c54 -113 102 -202 106 -198 4 4 53 97 109 206 l102
197 49 0 c27 0 49 -2 49 -5 0 -3 -61 -122 -135 -263 l-135 -258 0 -147 0 -147
-45 0 -45 0 0 148 -1 147 -132 263 -133 262 56 0 56 0 99 -205z m733 -39 c17
-9 44 -35 60 -58 l27 -41 3 -239 3 -238 -45 0 -46 0 0 46 0 46 -26 -32 c-55
-65 -166 -90 -247 -56 -97 40 -129 185 -59 267 37 45 90 65 220 85 l114 17 -7
36 c-15 79 -53 111 -130 111 -41 0 -107 -23 -146 -50 l-29 -21 0 49 c0 47 1
50 39 67 21 9 54 21 72 26 51 12 160 4 197 -15z m857 13 c105 -29 155 -104
169 -256 l6 -63 -211 0 -211 0 7 -32 c18 -90 49 -135 108 -157 64 -24 193 -6
236 33 27 24 31 20 31 -28 0 -43 -2 -45 -47 -67 -56 -27 -185 -37 -251 -20
-52 14 -104 59 -139 118 -22 38 -27 61 -31 142 -5 108 5 157 44 216 64 99 179
144 289 114z"/>
<path d="M2401 4439 c-102 -17 -141 -50 -141 -120 0 -20 10 -40 29 -60 25 -25
37 -29 83 -29 97 0 158 65 158 170 l0 50 -37 -1 c-21 -1 -62 -5 -92 -10z"/>
<path d="M4680 4662 c-41 -23 -66 -55 -85 -108 l-13 -39 155 -3 c86 -1 158 0
161 2 12 12 -35 121 -60 139 -39 29 -114 33 -158 9z"/>
<path d="M945 3496 c-259 -64 -394 -321 -285 -543 33 -67 115 -150 181 -184
125 -63 293 -63 418 0 68 35 148 117 183 189 30 60 33 75 33 157 0 82 -3 97
-33 157 -87 177 -299 273 -497 224z"/>
<path d="M5183 3500 c-108 -22 -235 -114 -285 -207 -83 -155 -52 -333 79 -453
65 -59 110 -84 190 -105 103 -27 227 -14 322 34 68 35 148 117 183 189 30 60
33 75 33 157 0 82 -3 97 -33 157 -85 172 -288 267 -489 228z"/>
<path d="M3120 1806 c-103 -19 -130 -41 -130 -110 0 -48 8 -65 41 -81 43 -23
110 -19 150 8 43 28 79 98 79 154 l0 43 -37 -1 c-21 0 -67 -6 -103 -13z"/>
<path d="M3973 2031 c-44 -20 -93 -89 -93 -129 0 -22 3 -22 156 -22 l156 0 -7
37 c-15 83 -51 119 -126 128 -32 4 -56 0 -86 -14z"/>
</g>
</svg>
